<svg width="25" height="25" viewBox="0 0 25 25" fill="none" xmlns="http://www.w3.org/2000/svg">
  <path d="M12.1875 0C9.77705 0 7.42072 0.714784 5.41649 2.05396C3.41227 3.39314 1.85017 5.29657 0.927724 7.52354C0.00528067 9.75052 -0.236072 12.201 0.234185 14.5652C0.704442 16.9293 1.86519 19.1009 3.56964 20.8054C5.27409 22.5098 7.4457 23.6706 9.80984 24.1408C12.174 24.6111 14.6245 24.3697 16.8515 23.4473C19.0784 22.5248 20.9819 20.9627 22.321 18.9585C23.6602 16.9543 24.375 14.598 24.375 12.1875C24.3716 8.95622 23.0865 5.85826 20.8016 3.5734C18.5167 1.28854 15.4188 0.00341229 12.1875 0ZM17.5383 10.0383L10.9758 16.6008C10.8887 16.6879 10.7853 16.7571 10.6715 16.8043C10.5577 16.8515 10.4357 16.8757 10.3125 16.8757C10.1893 16.8757 10.0673 16.8515 9.9535 16.8043C9.83969 16.7571 9.73629 16.6879 9.64922 16.6008L6.83672 13.7883C6.66081 13.6124 6.56198 13.3738 6.56198 13.125C6.56198 12.8762 6.66081 12.6376 6.83672 12.4617C7.01264 12.2858 7.25123 12.187 7.5 12.187C7.74878 12.187 7.98737 12.2858 8.16329 12.4617L10.3125 14.6121L16.2117 8.71172C16.2988 8.62461 16.4022 8.55552 16.516 8.50838C16.6298 8.46124 16.7518 8.43698 16.875 8.43698C16.9982 8.43698 17.1202 8.46124 17.234 8.50838C17.3478 8.55552 17.4512 8.62461 17.5383 8.71172C17.6254 8.79882 17.6945 8.90223 17.7416 9.01603C17.7888 9.12984 17.813 9.25182 17.813 9.375C17.813 9.49818 17.7888 9.62016 17.7416 9.73396C17.6945 9.84777 17.6254 9.95118 17.5383 10.0383Z" fill="#101010" />
</svg>