<svg width="20" height="20" viewBox="0 0 20 20" fill="none" xmlns="http://www.w3.org/2000/svg">
<path d="M10 6.40614C9.28923 6.40614 8.59442 6.61691 8.00343 7.0118C7.41244 7.40669 6.95182 7.96795 6.67982 8.62463C6.40782 9.2813 6.33665 10.0039 6.47531 10.701C6.61398 11.3981 6.95625 12.0385 7.45885 12.5411C7.96144 13.0437 8.60179 13.3859 9.2989 13.5246C9.99602 13.6633 10.7186 13.5921 11.3753 13.3201C12.032 13.0481 12.5932 12.5875 12.9881 11.9965C13.383 11.4055 13.5938 10.7107 13.5938 9.9999C13.5925 9.04715 13.2135 8.13379 12.5398 7.4601C11.8661 6.78641 10.9528 6.40738 10 6.40614ZM10 12.6561C9.47465 12.6561 8.96109 12.5004 8.52428 12.2085C8.08746 11.9166 7.747 11.5018 7.54596 11.0164C7.34491 10.531 7.29231 9.99695 7.3948 9.48169C7.49729 8.96642 7.75027 8.49313 8.12176 8.12164C8.49324 7.75016 8.96654 7.49718 9.4818 7.39468C9.99706 7.29219 10.5311 7.34479 11.0165 7.54584C11.5019 7.74689 11.9167 8.08734 12.2086 8.52416C12.5005 8.96098 12.6563 9.47454 12.6563 9.9999C12.6563 10.7044 12.3764 11.38 11.8783 11.8781C11.3801 12.3763 10.7045 12.6561 10 12.6561ZM16.7188 10.2218C16.7234 10.0741 16.7234 9.92568 16.7188 9.77802L17.9164 8.28115C17.9622 8.22384 17.9939 8.1566 18.009 8.08482C18.024 8.01304 18.022 7.93873 18.0031 7.86786C17.8158 7.16167 17.5352 6.48357 17.1688 5.85146C17.1324 5.7873 17.0814 5.73264 17.0199 5.69191C16.9584 5.65119 16.8881 5.62555 16.8149 5.61708L14.9047 5.40536C14.8042 5.29755 14.7 5.19338 14.5922 5.09286L14.3797 3.18193C14.3712 3.10866 14.3456 3.03842 14.3049 2.97692C14.2641 2.91543 14.2095 2.86441 14.1453 2.82802C13.514 2.46267 12.837 2.18263 12.132 1.99521C12.061 1.97664 11.9866 1.97503 11.9148 1.9905C11.843 2.00597 11.7759 2.03809 11.7188 2.08427L10.2188 3.28505C10.0711 3.28036 9.92267 3.28036 9.77501 3.28505L8.28126 2.08349C8.22396 2.03771 8.15672 2.00602 8.08494 1.99095C8.01316 1.97589 7.93885 1.97788 7.86798 1.99677C7.16179 2.18415 6.48369 2.46474 5.85157 2.83114C5.78742 2.86754 5.73276 2.91855 5.69203 2.98005C5.6513 3.04154 5.62567 3.11178 5.6172 3.18505L5.4086 5.09521C5.30079 5.19625 5.19662 5.30042 5.0961 5.40771L3.18438 5.62489C3.11111 5.63336 3.04088 5.659 2.97938 5.69973C2.91789 5.74045 2.86687 5.79511 2.83048 5.85927C2.46513 6.49062 2.18509 7.16761 1.99767 7.87255C1.97955 7.94273 1.97795 8.01615 1.993 8.08704C2.00805 8.15794 2.03933 8.22438 2.08438 8.28115L3.28517 9.78115C3.28048 9.9288 3.28048 10.0772 3.28517 10.2249L2.0836 11.7226C2.03783 11.7799 2.00613 11.8471 1.99107 11.9189C1.97601 11.9907 1.978 12.065 1.99688 12.1358C2.18459 12.8407 2.46518 13.5174 2.83126 14.1483C2.86765 14.2125 2.91867 14.2671 2.98016 14.3079C3.04166 14.3486 3.1119 14.3742 3.18517 14.3827L5.09532 14.5944C5.19636 14.7022 5.30053 14.8064 5.40782 14.9069L5.62501 16.8155C5.63348 16.8888 5.65912 16.959 5.69984 17.0205C5.74057 17.082 5.79523 17.133 5.85939 17.1694C6.49073 17.5348 7.16772 17.8148 7.87267 18.0022C7.94353 18.0211 8.01785 18.0231 8.08963 18.0081C8.1614 17.993 8.22865 17.9613 8.28595 17.9155L9.77814 16.7186C9.92579 16.7233 10.0742 16.7233 10.2219 16.7186L11.7227 17.9202C11.8059 17.9866 11.9092 18.0227 12.0156 18.0226C12.0562 18.0224 12.0967 18.0172 12.1359 18.0069C12.8408 17.8192 13.5176 17.5386 14.1484 17.1726C14.2126 17.1362 14.2673 17.0851 14.308 17.0236C14.3487 16.9622 14.3744 16.8919 14.3828 16.8186L14.5945 14.9085C14.7024 14.808 14.8065 14.7038 14.907 14.596L16.818 14.3835C16.8913 14.375 16.9615 14.3494 17.023 14.3087C17.0845 14.2679 17.1355 14.2133 17.1719 14.1491C17.5374 13.5178 17.8174 12.8408 18.0047 12.1358C18.0236 12.065 18.0256 11.9907 18.0105 11.9189C17.9955 11.8471 17.9638 11.7799 17.918 11.7226L16.7188 10.2218ZM16.4766 13.4741L14.6297 13.6796C14.5143 13.6929 14.4079 13.7486 14.3313 13.8358C14.1769 14.0098 14.0122 14.1744 13.8383 14.3288C13.751 14.4055 13.6953 14.5118 13.682 14.6272L13.4766 16.4733C13.0442 16.7039 12.5898 16.8908 12.1203 17.0311L10.6695 15.8702C10.5863 15.8038 10.483 15.7677 10.3766 15.7679H10.3484C10.1163 15.7811 9.88367 15.7811 9.65157 15.7679C9.53566 15.7608 9.42123 15.797 9.33048 15.8694L7.88048 17.0311C7.41139 16.89 6.95757 16.7024 6.52579 16.471L6.32032 14.6257C6.30702 14.5103 6.25134 14.4039 6.16407 14.3272C5.99013 14.1728 5.82552 14.0082 5.6711 13.8343C5.59442 13.747 5.48807 13.6913 5.37267 13.678L3.52657 13.4726C3.29622 13.0414 3.10936 12.5884 2.96876 12.1202L4.1297 10.6694C4.20216 10.5787 4.23835 10.4643 4.23126 10.3483C4.21798 10.1162 4.21798 9.88356 4.23126 9.65146C4.23835 9.53554 4.20216 9.42112 4.1297 9.33036L2.96876 7.88036C3.10989 7.41127 3.29754 6.95745 3.52892 6.52568L5.37423 6.32021C5.48963 6.3069 5.59599 6.25122 5.67267 6.16396C5.82708 5.99001 5.99169 5.8254 6.16564 5.67099C6.2529 5.59431 6.30858 5.48795 6.32189 5.37255L6.52735 3.52646C6.95851 3.2961 7.41152 3.10925 7.8797 2.96864L9.33048 4.12958C9.42123 4.20204 9.53566 4.23823 9.65157 4.23114C9.88367 4.21786 10.1163 4.21786 10.3484 4.23114C10.4644 4.23823 10.5788 4.20204 10.6695 4.12958L12.1195 2.96864C12.5886 3.10978 13.0425 3.29743 13.4742 3.5288L13.6797 5.37568C13.693 5.49108 13.7487 5.59743 13.8359 5.67411C14.0099 5.82852 14.1745 5.99314 14.3289 6.16708C14.4056 6.25435 14.512 6.31003 14.6274 6.32333L16.4734 6.5288C16.7037 6.95946 16.8906 7.41194 17.0313 7.87958L15.8703 9.33036C15.7979 9.42112 15.7617 9.53554 15.7688 9.65146C15.782 9.88356 15.782 10.1162 15.7688 10.3483C15.7617 10.4643 15.7979 10.5787 15.8703 10.6694L17.0313 12.1194C16.8906 12.5885 16.7035 13.0423 16.4727 13.4741H16.4766Z" fill="#101010"/>
</svg>
