<svg width="20" height="20" viewBox="0 0 20 20" fill="none" xmlns="http://www.w3.org/2000/svg">
<path d="M15.9563 10.9187C16.0023 10.9617 16.0392 11.0134 16.0649 11.0709C16.0905 11.1284 16.1043 11.1905 16.1054 11.2534C16.1065 11.3164 16.0949 11.3789 16.0713 11.4372C16.0478 11.4956 16.0127 11.5486 15.9681 11.5931C15.9236 11.6377 15.8706 11.6728 15.8122 11.6963C15.7539 11.7199 15.6914 11.7315 15.6284 11.7304C15.5655 11.7293 15.5034 11.7155 15.4459 11.6899C15.3884 11.6642 15.3367 11.6273 15.2937 11.5813L10.4688 6.75703V17.5C10.4688 17.6243 10.4194 17.7435 10.3315 17.8315C10.2435 17.9194 10.1243 17.9688 10 17.9688C9.87568 17.9688 9.75645 17.9194 9.66854 17.8315C9.58064 17.7435 9.53125 17.6243 9.53125 17.5V6.75703L4.70625 11.5813C4.61739 11.6641 4.49986 11.7091 4.37842 11.707C4.25699 11.7048 4.14112 11.6556 4.05524 11.5698C3.96935 11.4839 3.92016 11.368 3.91802 11.2466C3.91587 11.1251 3.96095 11.0076 4.04375 10.9187L9.66875 5.29375C9.75664 5.20597 9.87578 5.15666 10 5.15666C10.1242 5.15666 10.2434 5.20597 10.3313 5.29375L15.9563 10.9187ZM16.875 2.65625H3.125C3.00068 2.65625 2.88145 2.70564 2.79354 2.79354C2.70564 2.88145 2.65625 3.00068 2.65625 3.125C2.65625 3.24932 2.70564 3.36855 2.79354 3.45646C2.88145 3.54436 3.00068 3.59375 3.125 3.59375H16.875C16.9993 3.59375 17.1185 3.54436 17.2065 3.45646C17.2944 3.36855 17.3438 3.24932 17.3438 3.125C17.3438 3.00068 17.2944 2.88145 17.2065 2.79354C17.1185 2.70564 16.9993 2.65625 16.875 2.65625Z" fill="#101010"/>
</svg>
