<svg width="10" height="20" viewBox="0 0 10 20" fill="none" xmlns="http://www.w3.org/2000/svg">
<path d="M5 0.78125C6.1185 0.78249 7.19084 1.22736 7.98174 2.01826C8.77264 2.80916 9.21751 3.8815 9.21875 5L9.21875 16.25C9.21875 17.0374 8.90597 17.7925 8.34922 18.3492C7.79247 18.906 7.03736 19.2187 6.25 19.2187C5.46264 19.2187 4.70753 18.906 4.15078 18.3492C3.59403 17.7925 3.28125 17.0374 3.28125 16.25L3.28125 5C3.28125 4.54416 3.46233 4.10699 3.78466 3.78466C4.10699 3.46233 4.54416 3.28125 5 3.28125C5.45584 3.28125 5.89301 3.46233 6.21534 3.78466C6.53767 4.10699 6.71875 4.54416 6.71875 5L6.71875 13.75C6.71875 13.8743 6.66936 13.9935 6.58146 14.0815C6.49355 14.1694 6.37432 14.2187 6.25 14.2187C6.12568 14.2187 6.00645 14.1694 5.91854 14.0815C5.83064 13.9935 5.78125 13.8743 5.78125 13.75L5.78125 5C5.78125 4.7928 5.69894 4.59408 5.55243 4.44757C5.40591 4.30106 5.2072 4.21875 5 4.21875C4.7928 4.21875 4.59409 4.30106 4.44757 4.44757C4.30106 4.59408 4.21875 4.7928 4.21875 5L4.21875 16.25C4.21875 16.7887 4.43276 17.3054 4.81369 17.6863C5.19462 18.0672 5.71128 18.2812 6.25 18.2812C6.78872 18.2812 7.30538 18.0672 7.68631 17.6863C8.06724 17.3054 8.28125 16.7887 8.28125 16.25L8.28125 5C8.28125 4.12976 7.93555 3.29516 7.32019 2.67981C6.70484 2.06445 5.87024 1.71875 5 1.71875C4.12976 1.71875 3.29516 2.06445 2.67981 2.67981C2.06445 3.29516 1.71875 4.12976 1.71875 5L1.71875 13.75C1.71875 13.8743 1.66936 13.9935 1.58146 14.0815C1.49355 14.1694 1.37432 14.2187 1.25 14.2187C1.12568 14.2187 1.00645 14.1694 0.918544 14.0815C0.830636 13.9935 0.78125 13.8743 0.78125 13.75L0.781249 5C0.78249 3.8815 1.22736 2.80916 2.01826 2.01826C2.80916 1.22736 3.8815 0.78249 5 0.78125Z" fill="#101010"/>
</svg>
