<svg width="13" height="13" viewBox="0 0 13 13" fill="none" xmlns="http://www.w3.org/2000/svg">
<path fill-rule="evenodd" clip-rule="evenodd" d="M10.9076 6.2902C10.5192 7.2123 9.83654 7.97992 8.96608 8.4733C10.5779 8.98843 11.9619 10.0453 12.8833 11.4647C12.9395 11.5681 12.9549 11.6888 12.9262 11.8029C12.8976 11.9171 12.8271 12.0162 12.7287 12.0808C12.6303 12.1453 12.5112 12.1705 12.3951 12.1513C12.279 12.1321 12.1744 12.07 12.102 11.9772C11.5203 11.0828 10.7244 10.3478 9.78655 9.83905C8.84871 9.33027 7.79866 9.06378 6.7317 9.06378C5.66475 9.06378 4.61469 9.33027 3.67686 9.83905C2.73902 10.3478 1.94311 11.0828 1.36139 11.9772C1.29343 12.0813 1.18689 12.1542 1.06521 12.1798C0.94353 12.2053 0.816679 12.1815 0.712561 12.1135C0.608442 12.0456 0.535586 11.939 0.51002 11.8174C0.484453 11.6957 0.508271 11.5688 0.576232 11.4647C1.49853 10.0446 2.88402 8.98763 4.49733 8.4733C3.62686 7.97992 2.94418 7.2123 2.55578 6.2902C2.16738 5.3681 2.0951 4.34337 2.35023 3.37587C2.60535 2.40838 3.17353 1.55254 3.96612 0.941854C4.75871 0.331173 5.73114 0 6.7317 0C7.73227 0 8.7047 0.331173 9.49729 0.941854C10.2899 1.55254 10.8581 2.40838 11.1132 3.37587C11.3683 4.34337 11.296 5.3681 10.9076 6.2902ZM3.74361 2.53688C3.34872 3.12787 3.13795 3.82268 3.13795 4.53346C3.13919 5.4862 3.51822 6.39957 4.19191 7.07326C4.8656 7.74695 5.77896 8.12597 6.7317 8.12721C7.44248 8.12721 8.13729 7.91644 8.72828 7.52155C9.31927 7.12667 9.77989 6.5654 10.0519 5.90873C10.3239 5.25206 10.3951 4.52947 10.2564 3.83236C10.1177 3.13524 9.77546 2.49489 9.27287 1.9923C8.77027 1.4897 8.12993 1.14743 7.43281 1.00876C6.73569 0.870098 6.0131 0.941266 5.35643 1.21327C4.69976 1.48527 4.13849 1.94589 3.74361 2.53688Z" fill="white"/>
</svg>
