<svg width="16" height="15" viewBox="0 0 16 15" fill="none" xmlns="http://www.w3.org/2000/svg">
  <path d="M6.28125 6.75C6.28125 6.62568 6.33064 6.50645 6.41854 6.41854C6.50645 6.33064 6.62568 6.28125 6.75 6.28125H9.25C9.37432 6.28125 9.49355 6.33064 9.58146 6.41854C9.66936 6.50645 9.71875 6.62568 9.71875 6.75C9.71875 6.87432 9.66936 6.99355 9.58146 7.08146C9.49355 7.16936 9.37432 7.21875 9.25 7.21875H6.75C6.62568 7.21875 6.50645 7.16936 6.41854 7.08146C6.33064 6.99355 6.28125 6.87432 6.28125 6.75ZM15.9688 3.625V13.625C15.9688 13.9151 15.8535 14.1933 15.6484 14.3984C15.4433 14.6035 15.1651 14.7188 14.875 14.7188H1.125C0.834919 14.7188 0.55672 14.6035 0.351602 14.3984C0.146484 14.1933 0.03125 13.9151 0.03125 13.625V3.625C0.03125 3.33492 0.146484 3.05672 0.351602 2.8516C0.55672 2.64648 0.834919 2.53125 1.125 2.53125H4.40625V1.75C4.40625 1.29416 4.58733 0.856988 4.90966 0.53466C5.23199 0.212332 5.66916 0.03125 6.125 0.03125H9.875C10.3308 0.03125 10.768 0.212332 11.0903 0.53466C11.4127 0.856988 11.5938 1.29416 11.5938 1.75V2.53125H14.875C15.1651 2.53125 15.4433 2.64648 15.6484 2.8516C15.8535 3.05672 15.9688 3.33492 15.9688 3.625ZM5.34375 2.53125H10.6562V1.75C10.6562 1.5428 10.5739 1.34409 10.4274 1.19757C10.2809 1.05106 10.0822 0.96875 9.875 0.96875H6.125C5.9178 0.96875 5.71909 1.05106 5.57257 1.19757C5.42606 1.34409 5.34375 1.5428 5.34375 1.75V2.53125ZM0.96875 3.625V6.96797C3.12128 8.15768 5.54057 8.78159 8 8.78125C10.4595 8.78166 12.8789 8.15746 15.0312 6.96719V3.625C15.0312 3.58356 15.0148 3.54382 14.9855 3.51451C14.9562 3.48521 14.9164 3.46875 14.875 3.46875H1.125C1.08356 3.46875 1.04382 3.48521 1.01451 3.51451C0.985212 3.54382 0.96875 3.58356 0.96875 3.625ZM15.0312 13.625V8.02891C12.8538 9.13947 10.4443 9.71856 8 9.71875C5.55574 9.71901 3.14619 9.14018 0.96875 8.02969V13.625C0.96875 13.6664 0.985212 13.7062 1.01451 13.7355C1.04382 13.7648 1.08356 13.7812 1.125 13.7812H14.875C14.9164 13.7812 14.9562 13.7648 14.9855 13.7355C15.0148 13.7062 15.0312 13.6664 15.0312 13.625Z" fill="#101010" fill-opacity="0.5" />
</svg>