<svg width="20" height="20" viewBox="0 0 20 20" fill="none" xmlns="http://www.w3.org/2000/svg">
<path d="M16.7188 8.75008V16.2501C16.7188 16.5402 16.6035 16.8184 16.3984 17.0235C16.1933 17.2286 15.9151 17.3438 15.625 17.3438H4.375C4.08492 17.3438 3.80672 17.2286 3.6016 17.0235C3.39648 16.8184 3.28125 16.5402 3.28125 16.2501V8.75008C3.28125 8.46 3.39648 8.1818 3.6016 7.97668C3.80672 7.77156 4.08492 7.65633 4.375 7.65633H6.25C6.37432 7.65633 6.49355 7.70571 6.58146 7.79362C6.66936 7.88153 6.71875 8.00076 6.71875 8.12508C6.71875 8.2494 6.66936 8.36862 6.58146 8.45653C6.49355 8.54444 6.37432 8.59383 6.25 8.59383H4.375C4.33356 8.59383 4.29382 8.61029 4.26451 8.63959C4.23521 8.66889 4.21875 8.70864 4.21875 8.75008V16.2501C4.21875 16.2915 4.23521 16.3313 4.26451 16.3606C4.29382 16.3899 4.33356 16.4063 4.375 16.4063H15.625C15.6664 16.4063 15.7062 16.3899 15.7355 16.3606C15.7648 16.3313 15.7812 16.2915 15.7812 16.2501V8.75008C15.7812 8.70864 15.7648 8.66889 15.7355 8.63959C15.7062 8.61029 15.6664 8.59383 15.625 8.59383H13.75C13.6257 8.59383 13.5065 8.54444 13.4185 8.45653C13.3306 8.36862 13.2812 8.2494 13.2812 8.12508C13.2812 8.00076 13.3306 7.88153 13.4185 7.79362C13.5065 7.70571 13.6257 7.65633 13.75 7.65633H15.625C15.9151 7.65633 16.1933 7.77156 16.3984 7.97668C16.6035 8.1818 16.7188 8.46 16.7188 8.75008ZM7.20625 5.33133L9.53125 3.00711V10.6251C9.53125 10.7494 9.58064 10.8686 9.66854 10.9565C9.75645 11.0444 9.87568 11.0938 10 11.0938C10.1243 11.0938 10.2435 11.0444 10.3315 10.9565C10.4194 10.8686 10.4688 10.7494 10.4688 10.6251V3.00711L12.7937 5.33133C12.8367 5.37738 12.8884 5.41432 12.9459 5.43994C13.0034 5.46556 13.0655 5.47934 13.1284 5.48045C13.1914 5.48156 13.2539 5.46998 13.3122 5.4464C13.3706 5.42283 13.4236 5.38774 13.4681 5.34322C13.5127 5.29871 13.5478 5.24569 13.5713 5.18732C13.5949 5.12896 13.6065 5.06644 13.6054 5.0035C13.6043 4.94056 13.5905 4.87849 13.5649 4.82099C13.5392 4.76349 13.5023 4.71174 13.4563 4.66883L10.3313 1.54383C10.2434 1.45604 10.1242 1.40674 10 1.40674C9.87578 1.40674 9.75664 1.45604 9.66875 1.54383L6.54375 4.66883C6.4977 4.71174 6.46076 4.76349 6.43514 4.82099C6.40952 4.87849 6.39574 4.94056 6.39463 5.0035C6.39352 5.06644 6.4051 5.12896 6.42867 5.18732C6.45225 5.24569 6.48734 5.29871 6.53185 5.34322C6.57636 5.38774 6.62938 5.42283 6.68775 5.4464C6.74612 5.46998 6.80864 5.48156 6.87158 5.48045C6.93452 5.47934 6.99659 5.46556 7.05409 5.43994C7.11159 5.41432 7.16334 5.37738 7.20625 5.33133Z" fill="#101010"/>
</svg>
